<?xml version="1.0" standalone="no"?>
<!DOCTYPE svg PUBLIC "-//W3C//DTD SVG 20010904//EN"
 "http://www.w3.org/TR/2001/REC-SVG-20010904/DTD/svg10.dtd">
<svg version="1.0" xmlns="http://www.w3.org/2000/svg"
 width="584.000000pt" height="232.000000pt" viewBox="0 0 584.000000 232.000000"
 preserveAspectRatio="xMidYMid meet">

<g transform="translate(0.000000,232.000000) scale(0.100000,-0.100000)"
fill="#000000" stroke="none">
<path d="M4040 2314 c-14 -2 -63 -9 -110 -15 -96 -12 -216 -45 -329 -88 -246
-95 -436 -262 -559 -491 -37 -68 -92 -212 -92 -239 0 -7 43 -11 128 -11 l127
0 27 112 c78 320 273 527 573 610 69 18 107 22 275 22 212 1 305 -12 424 -60
141 -56 194 -147 221 -375 5 -46 10 -58 26 -62 42 -11 55 21 62 146 7 110 32
334 42 367 4 12 -29 20 -183 43 -103 15 -225 32 -272 37 -80 9 -306 11 -360 4z"/>
<path d="M1672 2205 c-6 -29 -65 -203 -131 -387 -67 -184 -121 -337 -121 -341
0 -4 25 -7 55 -7 30 0 55 2 55 4 0 8 170 490 175 494 2 3 7 -1 9 -9 3 -8 39
-121 81 -251 l77 -238 114 0 c81 0 114 3 114 12 0 6 -51 167 -114 357 -63 190
-118 362 -121 382 l-7 37 -88 0 -88 0 -10 -53z"/>
<path d="M523 1690 c-41 -24 -114 -117 -155 -196 l-32 -62 -65 -6 c-115 -12
-191 -66 -241 -173 -62 -132 -14 -222 89 -168 40 20 123 114 183 206 l51 79
64 0 c57 0 64 -2 59 -17 -17 -57 -46 -209 -46 -243 0 -34 3 -40 21 -40 11 0
34 9 50 21 31 21 39 42 14 33 -22 -9 -20 44 6 155 l21 91 37 10 c21 5 46 20
57 31 l19 22 -53 -7 c-49 -6 -53 -5 -48 11 3 10 15 69 26 131 17 89 19 116 10
127 -16 20 -29 19 -67 -5z m-9 -147 c-13 -64 -26 -118 -28 -121 -3 -2 -27 -1
-55 3 l-51 7 37 66 c56 102 96 162 109 162 8 0 4 -37 -12 -117z m-214 -169 c0
-21 -92 -175 -126 -211 -84 -89 -143 -31 -99 98 22 61 44 88 90 104 40 14 135
20 135 9z"/>
<path d="M3867 1681 c-158 -63 -268 -227 -268 -402 0 -88 20 -139 71 -182 56
-47 158 -49 247 -4 76 39 90 61 113 171 11 54 20 102 20 107 0 5 -42 9 -92 9
-74 0 -102 -5 -138 -22 -56 -26 -40 -32 77 -26 79 4 82 4 78 -16 -3 -12 -11
-52 -19 -90 -20 -98 -45 -121 -132 -121 -63 0 -67 2 -99 37 -44 47 -59 104
-52 198 10 140 72 251 166 293 37 16 56 18 130 12 79 -6 88 -5 114 15 15 12
27 24 27 28 0 4 -44 8 -98 9 -75 2 -108 -2 -145 -16z"/>
<path d="M867 1633 c-56 -43 -72 -83 -126 -309 -54 -222 -57 -239 -41 -249 11
-7 61 17 79 39 12 14 10 16 -8 16 -17 0 -21 5 -17 18 3 9 26 105 52 212 46
192 61 238 92 273 25 29 8 29 -31 0z"/>
<path d="M4698 1632 c-21 -15 -47 -45 -57 -67 -25 -50 -125 -461 -117 -480 8
-23 33 -18 68 15 25 22 29 29 16 30 -10 0 -18 8 -18 17 0 9 23 110 51 225 35
142 59 219 75 244 14 20 24 38 22 39 -2 2 -20 -9 -40 -23z"/>
<path d="M4933 1640 c-60 -36 -79 -81 -138 -324 -61 -251 -61 -265 0 -232 49
26 64 46 36 46 -11 0 -21 4 -21 9 0 5 23 102 50 216 49 201 66 251 98 288 19
22 15 22 -25 -3z"/>
<path d="M2560 1608 c-28 -17 -31 -23 -17 -26 10 -2 16 -9 14 -15 -3 -7 -15
-48 -28 -92 l-22 -80 -38 -1 c-85 -3 -189 -106 -208 -206 -23 -127 33 -153
130 -59 28 27 48 43 45 35 -3 -7 -8 -29 -12 -48 -8 -48 14 -57 61 -25 38 26
45 42 18 37 -13 -2 -17 3 -15 17 3 16 120 420 137 473 7 19 -26 14 -65 -10z
m-96 -254 c23 -9 20 -41 -9 -99 -37 -77 -109 -146 -135 -130 -14 9 -13 53 5
112 27 90 84 138 139 117z"/>
<path d="M1056 1390 c-104 -31 -201 -234 -142 -299 36 -39 139 -19 190 38 24
26 16 26 -35 0 -22 -11 -53 -19 -67 -17 -37 4 -58 49 -46 97 8 29 18 39 67 64
65 33 106 81 90 105 -12 20 -22 22 -57 12z m4 -50 c0 -15 -38 -50 -55 -50 -21
0 -19 16 5 40 21 21 50 27 50 10z"/>
<path d="M1260 1375 c-33 -24 -33 -29 2 -26 12 2 19 -12 28 -56 6 -32 13 -63
15 -69 5 -16 -77 -94 -98 -94 -9 0 -17 7 -17 15 0 20 -13 19 -33 -3 -22 -24
-22 -58 -1 -66 21 -8 94 34 127 74 28 33 31 32 41 -22 9 -50 36 -65 76 -41 36
21 38 30 8 35 -18 2 -25 14 -36 59 l-14 57 41 53 c44 58 67 109 50 109 -23 0
-49 -22 -49 -42 0 -11 -10 -37 -22 -57 l-23 -36 -11 53 c-11 50 -28 82 -43 82
-4 0 -22 -11 -41 -25z"/>
<path d="M1686 1386 c-84 -31 -166 -146 -166 -234 0 -98 41 -107 126 -30 37
34 55 46 51 33 -18 -61 -19 -75 -3 -81 17 -7 86 32 86 48 0 6 -7 8 -15 4 -24
-9 -18 28 23 152 l38 112 -26 -1 c-14 0 -36 2 -50 5 -14 3 -42 -1 -64 -8z m52
-50 c8 -38 -21 -108 -65 -156 -72 -80 -109 -77 -97 10 9 64 42 129 78 151 38
24 79 21 84 -5z"/>
<path d="M1958 1378 c-37 -21 -53 -46 -23 -34 20 7 20 11 -24 -141 -21 -73
-34 -133 -29 -133 25 0 48 24 64 67 25 67 40 90 98 151 48 50 76 65 76 40 0
-6 -14 -62 -32 -125 -25 -90 -29 -116 -19 -126 9 -9 20 -8 49 9 39 23 53 44
28 44 -21 0 -21 2 15 131 26 94 29 113 18 125 -21 20 -89 -14 -148 -75 l-49
-50 19 61 c26 83 19 92 -43 56z"/>
<path d="M3066 1385 c-84 -30 -166 -145 -166 -233 0 -98 41 -107 126 -30 37
34 55 46 51 33 -18 -61 -19 -75 -3 -81 9 -4 31 4 51 17 35 24 48 46 20 35 -23
-9 -19 22 20 143 19 59 35 111 35 114 0 4 -10 6 -22 5 -13 0 -34 2 -48 5 -14
4 -42 0 -64 -8z m38 -31 c40 -15 -4 -135 -72 -196 -23 -21 -49 -38 -57 -38
-38 0 -25 113 21 183 31 47 70 66 108 51z"/>
<path d="M4323 1390 c-40 -9 -94 -49 -128 -93 -68 -90 -73 -227 -8 -227 22 0
86 46 121 88 l23 27 -11 -28 c-14 -39 -13 -87 3 -87 14 0 87 47 87 57 0 3 -9
3 -21 0 -19 -5 -20 -3 -15 29 4 19 22 79 41 134 l33 100 -26 -1 c-15 0 -36 2
-47 4 -11 3 -35 2 -52 -3z m35 -53 c11 -57 -43 -160 -102 -197 -50 -30 -56
-26 -56 33 0 65 39 150 78 172 36 19 76 15 80 -8z"/>
<path d="M5112 1389 c-40 -12 -112 -83 -137 -136 -10 -21 -21 -61 -23 -89 -4
-43 -1 -55 17 -73 38 -38 120 -23 186 33 36 31 23 33 -30 6 -74 -38 -115 -19
-115 54 0 51 14 70 62 85 20 7 53 30 73 52 29 33 34 43 25 59 -12 22 -11 22
-58 9z m-2 -59 c-12 -22 -46 -43 -61 -38 -17 6 31 58 52 58 17 0 18 -3 9 -20z"/>
<path d="M2675 1365 c-24 -19 -26 -24 -12 -25 13 0 17 -5 13 -17 -17 -53 -66
-235 -66 -243 0 -6 5 -10 10 -10 24 0 50 44 74 123 21 68 33 91 62 116 30 27
41 31 69 25 27 -5 35 -2 45 15 31 60 -47 54 -113 -8 l-29 -26 7 38 c6 32 5 37
-11 37 -11 0 -32 -11 -49 -25z"/>
<path d="M5295 1365 c-23 -19 -26 -24 -12 -25 9 0 17 -4 17 -8 0 -4 -16 -63
-36 -131 -19 -68 -33 -126 -30 -129 3 -2 16 3 30 11 18 12 32 40 51 104 33
108 76 159 126 148 38 -8 76 19 58 42 -19 22 -55 15 -103 -21 l-45 -35 6 35
c5 29 3 34 -13 34 -11 0 -32 -11 -49 -25z"/>
<path d="M5583 1365 c-22 -19 -24 -24 -10 -25 9 0 17 -1 17 -2 -1 -2 -14 -55
-29 -118 -30 -122 -28 -150 10 -150 13 0 50 29 93 73 l73 72 -19 -80 c-50
-216 -100 -305 -170 -305 -19 0 -39 5 -46 12 -17 17 -15 79 4 106 18 26 12 28
-22 6 -54 -36 -69 -106 -31 -142 28 -27 68 -28 122 -3 81 37 136 125 185 298
17 59 43 146 56 192 14 45 23 86 19 89 -13 13 -42 -18 -80 -88 -22 -40 -64
-99 -94 -129 -49 -50 -55 -54 -59 -34 -3 18 27 148 54 236 8 27 -39 22 -73 -8z"/>
<path d="M1085 981 c-87 -5 -100 -8 -103 -25 -6 -30 10 -37 113 -47 54 -5 100
-10 102 -13 6 -6 -197 -507 -239 -589 -62 -120 -132 -167 -275 -183 -37 -5
-57 -12 -63 -25 -24 -44 -20 -44 373 -44 237 0 375 4 379 10 15 20 8 45 -14
49 -159 33 -180 39 -209 64 -30 25 -31 28 -26 86 5 68 65 259 168 535 38 102
69 186 69 188 0 4 -148 1 -275 -6z"/>
<path d="M2025 973 c34 -90 236 -708 241 -741 11 -70 3 -75 -203 -118 -17 -3
-23 -11 -23 -32 l0 -27 393 1 392 0 3 27 c4 31 5 30 -96 46 -40 6 -90 20 -111
31 -72 36 -115 127 -261 550 l-80 233 54 -7 c49 -5 55 -4 61 14 3 11 3 24 0
30 -4 6 -78 10 -192 10 -172 0 -185 -1 -178 -17z"/>
<path d="M2926 938 c11 -88 60 -269 94 -343 113 -252 319 -431 600 -523 160
-52 261 -66 500 -66 246 0 323 11 625 87 128 33 130 34 133 63 2 25 -2 31 -27
40 -22 9 -32 21 -40 50 -13 47 -14 333 -2 460 14 140 30 161 153 188 48 10 53
14 56 41 l3 30 -380 0 c-330 0 -380 -2 -384 -15 -9 -40 2 -46 102 -58 187 -22
206 -38 223 -200 15 -137 -3 -436 -29 -489 -40 -83 -132 -109 -383 -107 -143
1 -178 5 -261 27 -366 97 -604 358 -691 759 l-23 108 -138 0 -138 0 7 -52z"/>
</g>
</svg>
